<?xml version="1.0" encoding="utf-8"?>
<!-- Generator: Adobe Illustrator 21.0.0, SVG Export Plug-In . SVG Version: 6.00 Build 0)  -->
<svg version="1.1" id="Layer_1" xmlns="http://www.w3.org/2000/svg" xmlns:xlink="http://www.w3.org/1999/xlink" x="0px" y="0px"
	 viewBox="0 0 500 500" style="enable-background:new 0 0 250 250;" xml:space="preserve">
<style type="text/css">
	.st0{fill:#D51B27;}
	.st1{fill:#FFFFFF;stroke:#35A8E0;stroke-width:0.5;stroke-miterlimit:10;}
</style>
<g>
	<path class="st0" d="M389.3,14.1l33,0l10-13.8c0,0-37.3,0-46.3,0c-4.7,0-10,1.5-13.2,4c-4,3.1-6,7.4-6,12.6c0,2.9,0.5,5.4,1.6,7.6
		c1.1,2.1,2.5,3.8,4.2,4.9c1.6,1.1,3.4,1.9,5.3,2.6c1.2,0.4,10.3,2.4,11.8,2.7c1.3,0.3,2.4,0.7,3.1,1.3c1.8,1.4,0.5,3,0.1,3.3
		c-0.3,0.3-1.1,0.6-2.7,0.6l-27.5,0L359.7,54l34.2,0c0,0,4.3-0.2,5.6-0.7c2.4-0.7,3.2-0.4,6.3-2.9c4-3.1,5.5-7.8,5.5-13
		c0-2.9-0.5-5.4-1.6-7.6c-1.1-2.1-2.5-3.8-4.2-4.9c-1.6-1.1-3.4-1.9-5.3-2.6c-1.2-0.4-10.3-2.4-11.8-2.7c-1.3-0.3-2.3-0.7-3.1-1.3
		c-0.5-0.4-0.7-0.8-0.7-1.4c0-0.4,0-1,0.9-1.8C386.4,14,389.3,14.1,389.3,14.1z"/>
	<path class="st0" d="M96.2,40.6h25.5L119,53.7H78.9l11-53.4H130l-2.6,13.1H102l-1.3,7.2h20.4l-2.5,12.8H97.6L96.2,40.6z"/>
	<path class="st0" d="M172.1,37.7c-0.9,4.9-3.1,8.8-6.7,11.7c-3.5,2.9-7.6,4.3-12.3,4.3h-27.6l11.1-53.4h24.1
		c4.8,0,8.5,1.3,10.9,3.9c2.4,2.6,3.1,6.1,2.2,10.6c-0.7,3.8-3.6,7.1-8.5,9.9l0,0.3C171,27.6,173.3,31.8,172.1,37.7z M157.8,36.2
		c0.3-1.5,0.1-2.7-0.6-3.8c-0.7-1.1-1.7-1.6-3-1.6h-9.3l-2.2,10.8h9.5c1.2,0,2.4-0.6,3.5-1.7C156.8,38.9,157.5,37.6,157.8,36.2z
		 M148.9,12.3l-1.5,8.5h7.6c0.9,0,1.8-0.5,2.6-1.4c0.9-0.9,1.4-1.9,1.6-2.9c0.2-1,0-1.9-0.5-2.8c-0.5-0.9-1.2-1.4-2.1-1.4H148.9z"/>
	<path class="st0" d="M205.4,33.5l2.5-12.3H234l-6.6,32.6h-12.6l1.3-6.1l-0.3-0.2c-2.6,2.4-3.1,3.1-5.8,4.4c-2.6,1.3-6.3,2-10.4,2
		c-7,0-14.3-1.5-18.3-6.7c-4-5.2-5.3-11.9-3.8-20.1c0.9-5.2,3.2-9.9,6.7-14.2c3.5-4.3,6.6-7,11.6-9.5c5-2.4,11-3.2,16.3-3.2
		c6.4,0,13.3,1.7,16,3.9c4.1,3.3,6.3,7.7,6.5,13.4h-15c-1.2-3.7-4.5-5.5-9.9-5.5c-3.9,0-7.5,1.5-10.8,4.6c-3.3,3-5.3,6.5-6.1,10.5
		c-0.8,4-0.1,7.5,2,10.4c2.1,2.9,5.1,4.4,8.9,4.4c3.2,0,6.1-0.8,8.5-2.3c2.5-1.6,4.2-3.6,5.3-6H205.4z"/>
	<path class="st0" d="M268,54l-0.9-7.9h-16.5l-3.9,7.9H232l28.7-53.4h14.5l7.5,53.4H268z M265.8,34.4L265,17h-0.7l-7.8,17.4H265.8z"
		/>
	<path class="st0" d="M287.1,54l11.1-53.4h14.5L301.6,54H287.1z"/>
	<path class="st0" d="M353.7,54h-14l-10.3-27.1h-0.5L323.1,54h-14.7l10.9-53.4H334L344.7,27l0.5,0l5-26.4h14.2L353.7,54z"/>
	<polygon class="st0" points="68.7,0.8 63,27 62.5,27 52.3,0 52.2,0 51.9,1.9 51.8,2 52.2,0 33.3,24.9 38.4,0.8 23.5,0.8 12.9,54 
		27.7,54 27.7,54 46.5,27.6 47.1,27.6 47.4,27.6 56.3,54 71,54 82,0.8 	"/>
	<path class="st0" d="M499.8,0.3l-42.5,0c0,0,3.2,37.4-12,66.4C420,115,267.6,319.6,267.6,319.6l-25.2-34.8l55.4-77.9
		c12.5-16.8,0.5-40.6-20.4-40.6h-90.6l25.8,42.4h26.8l-27.3,36.3l-61.7-84.8c-9.9-13.6-1.4-31.3,15.4-31.1h188.6l28.7-39.8l-234.1,0
		c-44.7,0-69.9,49.5-43.6,85.6l78.6,108.3l-26.8,36.3c0,0-90.8-123.9-98.6-137.2c-7.5-13-11.4-19.1-15.2-34.7
		C37,120,47.4,89.4,47.4,89.4l-41.3,0c0,0-4,12.5-5.9,36.8c-2,25.7,5.4,48.8,16.4,69.9c5.6,10.6,82.6,120.9,124,177.4
		c8.4,11.5,25.5,11.5,34,0.1l37.4-50.2l7.8,11.3l28.3,39c8,11.2,24.6,11.4,32.9,0.4l130.5-182.8c15-20.2,44.6-59,68.8-101.9
		C501.8,51.3,500.1,2.1,499.8,0.3z"/>
</g>
</svg>
